# xmcd
#
# Track frame offsets: 
#        150
#        22084
#        37058
#        63453
#        77544
#        98085
#        115926
#        135606
#        150740
#        165881
#
# Disc length: 2528 seconds
#
# Revision: 0
# Processed by: cddbd v1.5.1PL0 Copyright (c) Steve Scherf et al.
# Submitted via: ExactAudioCopy v0.95a5
#
DISCID=7709de0a
DTITLE=Central Avenue Revue - New Old Stock
DYEAR=2003
DGENRE=Blues
TTITLE0=Did You Feel That?
TTITLE1=Got To Be A Better Way
TTITLE2=I Want To Know
TTITLE3=Living The Blues
TTITLE4=I'd Rather Be Blind
TTITLE5=Hiding From The Pain
TTITLE6=The Night Is A Hunter
TTITLE7=Nothing In My Pocket
TTITLE8=Did My Best
TTITLE9=Never Make A Move Too Soon
EXTD=
EXTT0=
EXTT1=
EXTT2=
EXTT3=
EXTT4=
EXTT5=
EXTT6=
EXTT7=
EXTT8=
EXTT9=
PLAYORDER=
